<svg width="32" height="32" viewBox="0 0 32 32" fill="none" xmlns="http://www.w3.org/2000/svg">
  <rect width="32" height="32" rx="8" fill="#6366F1"/>
  <path d="M10 8H22C23.1046 8 24 8.89543 24 10V22C24 23.1046 23.1046 24 22 24H10C8.89543 24 8 23.1046 8 22V10C8 8.89543 8.89543 8 10 8Z" fill="white" fill-opacity="0.1"/>
  <path d="M12 11V21C12 21.5523 12.4477 22 13 22H21C21.5523 22 22 21.5523 22 21V11C22 10.4477 21.5523 10 21 10H13C12.4477 10 12 10.4477 12 11Z" stroke="white" stroke-width="2" stroke-linecap="round" stroke-linejoin="round"/>
  <path d="M16 13V19" stroke="white" stroke-width="2" stroke-linecap="round" stroke-linejoin="round"/>
  <path d="M13 16H19" stroke="white" stroke-width="2" stroke-linecap="round" stroke-linejoin="round"/>
  <path d="M12 14H10C8.89543 14 8 14.8954 8 16C8 17.1046 8.89543 18 10 18H12" stroke="white" stroke-width="2" stroke-linecap="round" stroke-linejoin="round"/>
</svg>